<mxfile host="app.diagrams.net" modified="2023-07-12T08:49:24.809Z" agent="Mozilla/5.0 (Windows NT 10.0; Win64; x64) AppleWebKit/537.36 (KHTML, like Gecko) Chrome/114.0.0.0 Safari/537.36" etag="96o4_j9LKgz2wOd1yCz2" version="21.6.1" type="github">
  <diagram name="페이지-1" id="gCbUXPNIPIt0P3wTNuEC">
    <mxGraphModel dx="712" dy="874" grid="1" gridSize="10" guides="1" tooltips="1" connect="1" arrows="1" fold="1" page="1" pageScale="1" pageWidth="827" pageHeight="1169" math="0" shadow="0">
      <root>
        <mxCell id="0" />
        <mxCell id="1" parent="0" />
        <mxCell id="l5Eew3YipN7iS1mjQOOE-1" value="Boyer_Moore" style="ellipse;whiteSpace=wrap;html=1;" vertex="1" parent="1">
          <mxGeometry x="240" y="150" width="100" height="50" as="geometry" />
        </mxCell>
        <mxCell id="l5Eew3YipN7iS1mjQOOE-2" value="int* table = new int[pattern.size() + 1];" style="rounded=0;whiteSpace=wrap;html=1;" vertex="1" parent="1">
          <mxGeometry x="185" y="260" width="210" height="40" as="geometry" />
        </mxCell>
        <mxCell id="l5Eew3YipN7iS1mjQOOE-3" value="반복&lt;span style=&quot;white-space: pre;&quot;&gt;&#x9;&lt;/span&gt;&lt;span style=&quot;white-space: pre;&quot;&gt;&#x9;&lt;/span&gt;int i : 0, 1, patter.size()" style="swimlane;whiteSpace=wrap;html=1;" vertex="1" parent="1">
          <mxGeometry x="190" y="385" width="200" height="200" as="geometry" />
        </mxCell>
      </root>
    </mxGraphModel>
  </diagram>
</mxfile>
